<?xml version="1.0" standalone="no"?>
<!DOCTYPE svg PUBLIC "-//W3C//DTD SVG 20010904//EN"
 "http://www.w3.org/TR/2001/REC-SVG-20010904/DTD/svg10.dtd">
<svg version="1.0" xmlns="http://www.w3.org/2000/svg"
 width="266.000000pt" height="266.000000pt" viewBox="0 0 266.000000 266.000000"
 preserveAspectRatio="xMidYMid meet">
<metadata>
Created by potrace 1.11, written by Peter Selinger 2001-2013
</metadata>
<g transform="translate(0.000000,266.000000) scale(0.100000,-0.100000)"
fill="#000000" stroke="none">
<path d="M1215 2130 c-16 -4 -47 -8 -68 -9 -39 -1 -196 -35 -232 -51 -11 -4
-47 -18 -80 -31 -171 -66 -364 -189 -491 -314 -63 -62 -64 -63 -64 -117 0 -47
4 -60 32 -92 28 -31 41 -38 83 -42 59 -6 90 8 162 77 61 57 207 155 298 198
108 51 143 64 230 80 33 7 79 16 103 21 57 13 307 13 374 0 147 -29 210 -51
347 -118 93 -46 191 -112 261 -175 75 -69 90 -77 144 -77 96 0 157 83 127 173
-7 19 -37 58 -69 88 -62 58 -214 179 -226 179 -4 0 -27 14 -51 30 -24 17 -48
30 -54 30 -6 0 -26 9 -44 19 -53 30 -237 89 -342 110 -27 6 -71 15 -97 21 -53
11 -297 12 -343 0z"/>
<path d="M1150 1668 c-67 -18 -105 -29 -125 -37 -154 -63 -327 -187 -373 -268
-32 -59 -2 -146 61 -176 66 -32 118 -19 187 47 49 47 132 106 149 106 6 0 19
4 29 9 21 10 60 27 87 36 11 4 59 12 107 19 69 10 105 10 170 0 178 -27 252
-61 397 -186 40 -35 49 -38 102 -38 50 0 61 4 86 29 16 16 35 47 42 69 12 35
12 46 -1 79 -21 52 -161 165 -275 222 -121 60 -103 54 -265 90 -57 13 -330 13
-378 -1z"/>
<path d="M1225 1171 c-11 -5 -38 -14 -60 -21 -53 -17 -148 -82 -180 -123 -50
-66 -25 -166 50 -201 55 -26 105 -16 170 34 50 39 58 42 118 42 68 0 90 -8
148 -53 30 -23 47 -29 88 -29 62 0 95 19 122 71 23 46 24 76 3 117 -29 58
-140 131 -244 159 -50 14 -184 16 -215 4z"/>
</g>
</svg>
